<svg width="64" height="64" viewBox="0 0 64 64" fill="none" xmlns="http://www.w3.org/2000/svg">
<circle cx="32" cy="32" r="32" fill="#FEF3C7"/>
<path d="M22.867 46.9398H17.9591C17.1025 46.9398 16.3385 46.748 15.6209 46.3644C14.9032 45.9808 14.3476 45.448 13.9077 44.766L11.2917 40.5036C10.875 39.8642 10.6666 39.1822 10.6666 38.415C10.6666 37.6478 10.875 36.9871 11.2917 36.3477L13.954 32.0214L11.2917 27.7164C10.875 27.077 10.6666 26.3737 10.6666 25.6278C10.6666 24.8819 10.875 24.1786 11.2917 23.5392L13.9077 19.2768C14.3244 18.5948 14.9032 18.062 15.6209 17.6784C16.3385 17.2948 17.1257 17.0817 17.9591 17.0817H22.867L25.4599 12.8619C25.8766 12.1799 26.4554 11.6471 27.173 11.2635C27.8907 10.8799 28.6778 10.6667 29.5113 10.6667H34.4887C35.3452 10.6667 36.1092 10.8586 36.8269 11.2635C37.5445 11.6471 38.1002 12.1799 38.54 12.8619L41.156 17.0817H46.064C46.9206 17.0817 47.6845 17.2735 48.4022 17.6784C49.1199 18.062 49.6755 18.5948 50.1154 19.2768L52.7082 23.5392C53.1249 24.1786 53.3333 24.8606 53.3333 25.6278C53.3333 26.395 53.1249 27.077 52.7082 27.7164L50.0459 32.0214L52.7082 36.3477C53.1249 36.9871 53.3333 37.6691 53.3333 38.415C53.3333 39.1609 53.1249 39.8642 52.7082 40.5036L50.1154 44.766C49.6986 45.448 49.1199 45.9808 48.4022 46.3644C47.6845 46.748 46.8974 46.9398 46.064 46.9398H41.156L38.54 51.1596C38.1233 51.8416 37.5445 52.3744 36.8269 52.758C36.1092 53.1416 35.3221 53.3334 34.4887 53.3334H29.5113C28.6547 53.3334 27.8907 53.1416 27.173 52.758C26.4554 52.3744 25.8998 51.8416 25.4599 51.1596L22.867 46.9398ZM41.156 29.8902H46.1334L48.68 25.6278L46.1334 21.3654H41.156L38.54 25.6278L41.156 29.8902ZM29.5807 36.2838H34.4424L37.0352 32.0214L34.4424 27.759H29.5807L26.9878 32.0214L29.5807 36.2838ZM29.5807 23.4966H34.4424L37.1047 19.1702L34.5118 14.9718H29.5344L26.9415 19.1702L29.6039 23.4966H29.5807ZM25.483 25.6278L22.8902 21.3654H17.9822L15.3894 25.6278L17.9822 29.8902H22.8902L25.483 25.6278ZM25.483 38.415L22.8902 34.1526H17.9128L15.3662 38.415L17.9591 42.6774H22.867L25.4599 38.415H25.483ZM29.5807 40.5462L26.9184 44.8512L29.5113 49.071H34.4887L37.0815 44.8512L34.4192 40.5462H29.5576H29.5807ZM41.156 42.6774H46.064L48.6569 38.415L46.064 34.1526H41.156L38.54 38.415L41.156 42.6774Z" fill="#D97706"/>
</svg>
